<svg width="125" height="60" viewBox="0 0 125 60" fill="none" xmlns="http://www.w3.org/2000/svg">
<path d="M0 35.5825H3.73115V53.8775H0V35.5825Z" fill="white"/>
<path d="M5.89514 47.6092C5.89267 46.2951 6.28009 45.0098 7.00836 43.916C7.73663 42.8222 8.77302 41.969 9.98638 41.4644C11.1997 40.9598 12.5354 40.8265 13.8246 41.0814C15.1137 41.3362 16.2983 41.9678 17.2283 42.8962C18.1584 43.8245 18.7922 45.0078 19.0494 46.2965C19.3067 47.5851 19.176 48.9211 18.6736 50.1354C18.1713 51.3496 17.3201 52.3876 16.2276 53.1179C15.1352 53.8484 13.8507 54.2381 12.5366 54.2381C11.6626 54.2481 10.7956 54.0836 9.98612 53.7541C9.17667 53.4247 8.4411 52.937 7.82256 52.3195C7.20401 51.7022 6.71492 50.9676 6.38395 50.1586C6.05299 49.3498 5.8868 48.483 5.89514 47.6092ZM15.4219 47.6092C15.4073 47.0419 15.2257 46.4915 14.8998 46.027C14.574 45.5623 14.1184 45.2042 13.59 44.9972C13.0616 44.7901 12.4839 44.7436 11.9293 44.8632C11.3746 44.9828 10.8675 45.2633 10.4713 45.6697C10.0753 46.076 9.80779 46.5902 9.70234 47.1478C9.59691 47.7053 9.65826 48.2817 9.87864 48.8045C10.0991 49.3274 10.4688 49.7738 10.9415 50.0876C11.4143 50.4015 11.9691 50.569 12.5366 50.5692C12.9248 50.5801 13.3111 50.5104 13.671 50.3645C14.031 50.2185 14.3568 49.9997 14.628 49.7215C14.899 49.4433 15.1096 49.1121 15.2462 48.7486C15.3829 48.3849 15.4427 47.9971 15.4219 47.6092Z" fill="white"/>
<path d="M34.1771 41.3408V53.2555C34.1771 57.4717 30.8813 59.2503 27.5482 59.2503C26.3761 59.3375 25.2026 59.1004 24.1562 58.5651C23.1098 58.0299 22.2309 57.217 21.6157 56.2156L24.8245 54.3625C25.0791 54.8756 25.482 55.3007 25.9809 55.5823C26.4798 55.8638 27.0518 55.9892 27.6229 55.9419C27.9985 56.0046 28.3836 55.9801 28.7484 55.8703C29.1132 55.7606 29.4479 55.5686 29.7267 55.309C30.0054 55.0494 30.2209 54.7292 30.3564 54.3732C30.492 54.0172 30.5438 53.6348 30.5082 53.2555V52.0989C30.0696 52.6386 29.5098 53.0673 28.8746 53.3504C28.2394 53.6334 27.5463 53.7629 26.8517 53.7282C25.1628 53.7282 23.5432 53.0573 22.3489 51.8631C21.1547 50.6689 20.4838 49.0492 20.4838 47.3603C20.4838 45.6715 21.1547 44.0519 22.3489 42.8577C23.5432 41.6635 25.1628 40.9926 26.8517 40.9926C27.5459 40.9608 28.2379 41.0916 28.8728 41.3744C29.5076 41.6573 30.0676 42.0844 30.5082 42.6218V41.3781L34.1771 41.3408ZM30.5082 47.3603C30.533 46.7555 30.3763 46.1571 30.0584 45.6418C29.7403 45.1267 29.2755 44.7184 28.7237 44.4696C28.1718 44.2207 27.5581 44.1426 26.9614 44.2453C26.3648 44.3479 25.8125 44.6268 25.3757 45.0457C24.9387 45.4648 24.6371 46.0049 24.5096 46.5967C24.382 47.1885 24.4344 47.805 24.66 48.3667C24.8856 48.9286 25.274 49.41 25.7754 49.7492C26.2768 50.0886 26.8682 50.2701 27.4735 50.2707C27.8688 50.2986 28.2653 50.2435 28.6378 50.1088C29.0104 49.9741 29.3506 49.7629 29.6365 49.4887C29.9223 49.2145 30.1477 48.8834 30.2978 48.5168C30.448 48.1503 30.5196 47.7564 30.5082 47.3603Z" fill="white"/>
<path d="M36.3288 47.6092C36.3263 46.2951 36.7138 45.0098 37.442 43.916C38.1703 42.8222 39.2067 41.969 40.42 41.4644C41.6333 40.9598 42.9691 40.8265 44.2582 41.0814C45.5473 41.3362 46.7319 41.9678 47.662 42.8962C48.592 43.8245 49.2258 45.0078 49.4831 46.2965C49.7404 47.5851 49.6096 48.9211 49.1072 50.1354C48.6049 51.3496 47.7537 52.3876 46.6613 53.1179C45.5688 53.8484 44.2843 54.2381 42.9702 54.2381C42.0964 54.2481 41.2292 54.0836 40.4197 53.7541C39.6103 53.4247 38.8747 52.937 38.2562 52.3195C37.6377 51.7022 37.1485 50.9676 36.8176 50.1586C36.4866 49.3498 36.3204 48.483 36.3288 47.6092ZM45.8557 47.6092C45.8409 47.0419 45.6593 46.4915 45.3335 46.027C45.0076 45.5623 44.552 45.2042 44.0236 44.9972C43.4954 44.7901 42.9177 44.7436 42.3629 44.8632C41.8082 44.9828 41.3011 45.2633 40.9049 45.6697C40.5089 46.076 40.2414 46.5902 40.1359 47.1478C40.0305 47.7053 40.0919 48.2817 40.3123 48.8045C40.5327 49.3274 40.9024 49.7738 41.3751 50.0876C41.848 50.4015 42.4027 50.569 42.9702 50.5692C43.3564 50.5765 43.7399 50.5044 44.097 50.3568C44.4539 50.2093 44.7767 49.9899 45.0451 49.7121C45.3136 49.4345 45.5218 49.1043 45.6571 48.7425C45.7922 48.3807 45.8513 47.9948 45.8308 47.6092H45.8557Z" fill="white"/>
<path d="M51.3405 37.9829C51.3405 37.5352 51.4733 37.0975 51.7219 36.7253C51.9707 36.3531 52.3242 36.063 52.7378 35.8916C53.1515 35.7203 53.6065 35.6755 54.0456 35.7628C54.4847 35.8501 54.888 36.0657 55.2047 36.3822C55.5213 36.6989 55.7368 37.1021 55.8241 37.5413C55.9115 37.9804 55.8666 38.4355 55.6954 38.8491C55.524 39.2627 55.2339 39.6163 54.8617 39.865C54.4894 40.1136 54.0518 40.2464 53.604 40.2464C53.0048 40.2432 52.4309 40.0036 52.0071 39.5798C51.5833 39.1561 51.3438 38.5823 51.3405 37.9829ZM51.726 41.3409H55.4571V53.8775H51.726V41.3409Z" fill="white"/>
<path d="M71.7247 47.6091C71.7699 48.4378 71.6508 49.2673 71.3742 50.0498C71.0975 50.8323 70.6689 51.5523 70.1129 52.1684C69.5568 52.7845 68.8844 53.2846 68.1344 53.6398C67.3843 53.9951 66.5714 54.1984 65.7424 54.2382C65.0465 54.2715 64.3516 54.1519 63.7071 53.8876C63.0624 53.6233 62.4835 53.2208 62.0113 52.7084V58.927H58.2802V41.3408H62.0113V42.5224C62.4835 42.01 63.0624 41.6075 63.7071 41.3432C64.3516 41.0788 65.0465 40.9593 65.7424 40.9926C66.5704 41.0324 67.3822 41.2353 68.1313 41.5897C68.8806 41.9443 69.5525 42.4432 70.1083 43.058C70.6642 43.6728 71.093 44.3913 71.3704 45.1723C71.6479 45.9533 71.7683 46.7815 71.7247 47.6091ZM67.9936 47.6091C67.9788 47.0254 67.7931 46.4588 67.4595 45.9795C67.1259 45.5004 66.6591 45.1294 66.1169 44.9128C65.5747 44.6962 64.9807 44.6434 64.4088 44.761C63.8368 44.8785 63.3118 45.1612 62.8989 45.5741C62.486 45.987 62.2034 46.5119 62.0857 47.0839C61.9683 47.6559 62.0211 48.2498 62.2376 48.792C62.4543 49.3342 62.8251 49.8011 63.3044 50.1346C63.7837 50.4682 64.3503 50.6539 64.934 50.6687C65.3414 50.6946 65.7496 50.633 66.1312 50.4881C66.5128 50.3431 66.8589 50.1181 67.1464 49.8284C67.4338 49.5385 67.656 49.1905 67.7979 48.8078C67.9396 48.4251 67.9979 48.0164 67.9687 47.6091H67.9936Z" fill="white"/>
<path d="M83.3411 50.1216C83.3411 53.007 80.8537 54.2382 78.1175 54.2382C77.0245 54.335 75.9275 54.1024 74.9678 53.5704C74.0081 53.0385 73.2295 52.2315 72.7323 51.2533L75.9909 49.4002C76.1231 49.8526 76.4063 50.2462 76.7931 50.5154C77.18 50.7846 77.6473 50.9134 78.1175 50.8802C79.0255 50.8802 79.4732 50.5941 79.4732 50.0967C79.4732 48.7161 73.2546 49.45 73.2546 45.1219C73.2546 42.3856 75.5679 41.0051 78.2295 41.0051C79.2116 40.9753 80.1839 41.2086 81.0455 41.681C81.9071 42.1533 82.6266 42.8475 83.1298 43.6915L79.8588 45.4079C79.7143 45.0794 79.4775 44.8 79.1772 44.6035C78.8769 44.4069 78.5262 44.3018 78.1673 44.3009C77.5206 44.3009 77.1226 44.5497 77.1226 45.0099C77.1724 46.4401 83.3411 45.4825 83.3411 50.1216Z" fill="white"/>
<path d="M97.0717 41.3408V53.8775H93.3405V52.7084C92.9065 53.2279 92.3557 53.6372 91.7331 53.9031C91.1107 54.1691 90.434 54.2838 89.7586 54.2382C87.2712 54.2382 85.0698 52.4347 85.0698 49.0395V41.3408H88.8009V48.4922C88.7681 48.797 88.8037 49.1052 88.9049 49.3946C89.006 49.6839 89.1702 49.9471 89.3859 50.165C89.6013 50.383 89.8628 50.5501 90.1509 50.6545C90.4391 50.7589 90.747 50.7976 91.0521 50.7683C92.4202 50.7683 93.3779 49.9722 93.3779 48.1938V41.3408H97.0717Z" fill="white"/>
<path d="M118.638 46.1912V53.8774H114.906V46.5147C114.906 45.271 114.297 44.4501 113.103 44.4501C111.909 44.4501 111.138 45.3332 111.138 46.8131V53.8774H107.407V46.5147C107.407 45.271 106.81 44.4501 105.603 44.4501C104.397 44.4501 103.651 45.3332 103.651 46.8131V53.8774H99.9196V41.3409H103.651V42.4975C104.041 41.9866 104.552 41.5814 105.139 41.3186C105.725 41.0557 106.368 40.9436 107.009 40.9926C107.652 40.9613 108.293 41.0973 108.868 41.3871C109.444 41.677 109.934 42.1109 110.292 42.6467C110.708 42.0866 111.26 41.641 111.895 41.3518C112.53 41.0626 113.228 40.9389 113.924 40.9926C116.76 40.9926 118.638 43.0571 118.638 46.1912Z" fill="white"/>
<path d="M121.822 41.2663C123.36 41.2663 124.607 40.0189 124.607 38.4803C124.607 36.9417 123.36 35.6944 121.822 35.6944C120.283 35.6944 119.036 36.9417 119.036 38.4803C119.036 40.0189 120.283 41.2663 121.822 41.2663Z" fill="white"/>
<path d="M82.1994 26.0931C89.4048 26.0931 95.2459 20.2519 95.2459 13.0465C95.2459 5.84114 89.4048 0 82.1994 0C74.994 0 69.1528 5.84114 69.1528 13.0465C69.1528 20.2519 74.994 26.0931 82.1994 26.0931Z" fill="white"/>
<path d="M111.364 26.0931C118.57 26.0931 124.411 20.2519 124.411 13.0465C124.411 5.84114 118.57 0 111.364 0C104.159 0 98.3179 5.84114 98.3179 13.0465C98.3179 20.2519 104.159 26.0931 111.364 26.0931Z" fill="white"/>
<path d="M66.0806 0H40V26.0806H66.0806V0Z" fill="white"/>
</svg>
